<svg xmlns="http://www.w3.org/2000/svg" viewBox="0 0 100 100"><rect width="100" height="100" rx="22" fill="#100E0C" stroke="#362E24" stroke-width="1"/><path d="M50 11 C60 15 72 17 82 17 V48 C82 68 68 82 50 91 C32 82 18 68 18 48 V17 C28 17 40 15 50 11 Z" fill="#17130F" stroke="#5FB88C" stroke-width="4.5" stroke-linejoin="round"/><path d="M50 19 C58 22 68 24 75 24 V48 C75 64 64 75 50 83 C36 75 25 64 25 48 V24 C32 24 42 22 50 19 Z" fill="none" stroke="#5FB88C" stroke-width="1.5" opacity="0.4"/><path d="M36 36 L50 26 L64 36" fill="none" stroke="#E0BB70" stroke-width="5" stroke-linecap="round" stroke-linejoin="round"/><rect x="34" y="56" width="9" height="12" rx="2" fill="#5FB88C" opacity="0.55"/><rect x="46" y="50" width="9" height="18" rx="2" fill="#5FB88C" opacity="0.8"/><rect x="58" y="44" width="9" height="24" rx="2" fill="#5FB88C"/></svg>
